<svg id="Camada_1" data-name="Camada 1" xmlns="http://www.w3.org/2000/svg" viewBox="0 0 255.95 319.74"><defs><style>.cls-1{fill:#fff;}</style></defs><path class="cls-1" d="M255.89,48.75a52.69,52.69,0,0,0-1-10.41C249.8,13.5,229.48-1.61,203.72.14H48.09C24.66-.84,2.93,17.91,1,41.32-.55,59.75.46,78.26.5,96.74c0,6.62,3.31,11.75,9.83,14.09,11.63,4.17,22-3.16,22-15.53,0-15,0-30,0-45,0-12,3.91-16.64,15.72-18.7l58.36,0h97.27c.75.06,1.49.15,2.23.16,12.48.19,18,5.75,18,18.22V269.63c0,1.12,0,2.25,0,3.37-.37,6.55-4,11.59-9.86,13.72-2.62,1-5.36,1-8.07,1.29H63.8c-4.73-.05-9.47-.12-14.2-.16-11.32-.11-17.21-6.07-17.22-17.47,0-15.49.07-31,0-46.47,0-6.55-2.32-11.95-8.94-14.56-13-4.6-22.7,2.25-22.86,13.39-.26,18.72-1.34,37.51.57,56.16,1.47,14.41,8.65,25.93,21.44,33.45a34.68,34.68,0,0,0,10,4.85c10.23,3.55,20.81,2.35,31.3,2.3H206a36.4,36.4,0,0,0,9.67-.34c24.65-4.45,40.25-23,40.27-48.28Q256,159.81,255.89,48.75Z"/><path class="cls-1" d="M65.3,144.07H25.64c-3.84,0-7.7-.26-11.53,0C6,144.61.41,151.17.41,159.82S6,175,14.11,175.57c3.83.25,7.69,0,11.53,0h111.2l.79,1.56a21.57,21.57,0,0,0-3.42,2.31c-11.14,11.09-22.3,22.17-33.32,33.38-6.29,6.4-6.23,15.5-.14,21.84s15.47,7.1,21.75,1c10.81-10.53,21.31-21.38,31.93-32.1,11.38-11.32,22.84-22.56,34.08-34,4.31-4.38,4.3-15.05,0-19.44-11.24-11.46-22.7-22.7-34.07-34h0c-10.73-10.8-21.37-21.68-32.22-32.35A13.61,13.61,0,0,0,110.13,80a15.82,15.82,0,0,0-13,11c-2.15,6.14-.43,11.58,4.07,16.11q16.62,16.74,33.32,33.4c.89.9,2.11,1.64,2.54,3.56H65.3Z"/></svg>