<svg id="Camada_1" data-name="Camada 1" xmlns="http://www.w3.org/2000/svg" viewBox="0 0 566.67 566.67"><defs><style>.cls-1{fill:none;stroke:#fff;stroke-linecap:round;stroke-linejoin:round;stroke-width:66.67px;}</style></defs><g id="Interface_External_Link" data-name="Interface / External_Link"><path id="Vector" class="cls-1" d="M200,66.67H140c-37.34,0-56,0-70.28,7.26A66.62,66.62,0,0,0,40.6,103.06c-7.27,14.26-7.27,32.94-7.27,70.28V426.67c0,37.34,0,56,7.27,70.26a66.64,66.64,0,0,0,29.13,29.14c14.24,7.26,32.9,7.26,70.17,7.26H393.44c37.26,0,55.89,0,70.14-7.26a66.79,66.79,0,0,0,29.16-29.15C500,482.67,500,464,500,426.77v-60.1M533.33,200V33.33m0,0H366.67m166.66,0L300,266.67"/></g></svg>