<svg xmlns="http://www.w3.org/2000/svg" viewBox="0 0 32.24 32.24"><defs><style>.cls-1{fill:#4561de;}.cls-2{fill:#fff;}</style></defs><g id="Camada_3" data-name="Camada 3"><circle class="cls-1" cx="16.12" cy="16.12" r="16.12"/></g><g id="Camada_1" data-name="Camada 1"><circle class="cls-2" cx="23.18" cy="21.61" r="1.46"/><path class="cls-2" d="M15.05,23.11A1,1,0,0,1,14,22.06a1.13,1.13,0,0,1,.05-.32L17.91,9.85a1,1,0,0,1,1.32-.67,1.06,1.06,0,0,1,.68,1.32L16.05,22.38A1.06,1.06,0,0,1,15.05,23.11Z"/><path class="cls-2" d="M8.65,23.11A1,1,0,0,1,7.6,22.06a1.13,1.13,0,0,1,.05-.32L11.51,9.85a1,1,0,1,1,2,.65L9.64,22.38A1,1,0,0,1,8.65,23.11Z"/></g></svg>