<svg id="Camada_1" data-name="Camada 1" xmlns="http://www.w3.org/2000/svg" viewBox="0 0 405.41 75.53"><defs><style>.cls-1{fill:#4561de;}</style></defs><path class="cls-1" d="M89.9,75.53A4.51,4.51,0,0,1,85.4,71v-33A24.09,24.09,0,0,1,99.94,15.84a24.5,24.5,0,0,1,10.86-1.92c13.18.72,23.77,12,23.13,24.72C133.3,51,122.41,61.09,109.65,61A24,24,0,0,1,94.4,55.44V71A4.5,4.5,0,0,1,89.9,75.53Zm4.51-37.62A15.65,15.65,0,0,0,109.68,52h0c8,0,14.82-6.19,15.21-13.83s-6.45-14.83-14.63-15.28a15.61,15.61,0,0,0-6.85,1.22A15.07,15.07,0,0,0,94.41,37.91Z"/><path class="cls-1" d="M145.14,60.29a4.49,4.49,0,0,1-4.5-4.5V38.66c0-9.87,5.08-18.59,13.29-22.76a24.78,24.78,0,0,1,17.75-1.49,4.5,4.5,0,1,1-2.49,8.65,15.7,15.7,0,0,0-11.19.86c-5.08,2.59-8.36,8.37-8.36,14.73V55.79A4.5,4.5,0,0,1,145.14,60.29Z"/><path class="cls-1" d="M201.43,60.41C188,60.41,177,49.84,177,36.85s11-23.56,24.44-23.56,24.44,10.57,24.44,23.56S214.91,60.41,201.43,60.41Zm0-38.12c-8.51,0-15.44,6.53-15.44,14.56s6.93,14.56,15.44,14.56,15.44-6.53,15.44-14.56S210,22.29,201.43,22.29Z"/><path class="cls-1" d="M258.07,60.57a21.73,21.73,0,0,1-2.86-.2A20.88,20.88,0,0,1,248.14,58a21.45,21.45,0,0,1-10.91-18.93V4.5a4.5,4.5,0,0,1,9,0V39.07a12.45,12.45,0,0,0,6.24,11,12,12,0,0,0,4,1.35c5.18.73,9.22-2.45,10-3.09a4.5,4.5,0,1,1,5.84,6.85A22.75,22.75,0,0,1,258.07,60.57Z"/><path class="cls-1" d="M265.49,23.41H231.61a4.5,4.5,0,0,1,0-9h33.88a4.5,4.5,0,0,1,0,9Z"/><path class="cls-1" d="M298.91,60.44c-8.06,0-15.33-2.81-19.94-8.18a22.69,22.69,0,0,1-5.21-15.17c0-.23,0-.45,0-.68a3,3,0,0,1,0-.43c1-11,10.05-22.31,22.72-22.31h.29c12,.16,22.08,10.29,22.56,22.59a4.49,4.49,0,0,1-4.48,4.67l-31.78.1a12.68,12.68,0,0,0,2.66,5.36c5,5.84,15.52,6.76,25.55,2.23a4.5,4.5,0,0,1,3.7,8.21A39.53,39.53,0,0,1,298.91,60.44Zm-2.36-37.77c-6.16,0-10.5,4.55-12.52,9.37L309.46,32a14.15,14.15,0,0,0-12.75-9.29Z"/><path class="cls-1" d="M345.82,60.89a22.43,22.43,0,0,1-11.26-3c-11-6.27-11.86-18.28-11.92-20.62a22.8,22.8,0,0,1,4.52-14.73c6.12-7.94,17.86-10.88,29.21-7.32a4.5,4.5,0,1,1-2.69,8.58c-7.77-2.43-15.56-.73-19.4,4.24a14,14,0,0,0-2.64,9c0,.91.42,9.06,7.37,13s14.24.14,14.54,0A4.5,4.5,0,0,1,357.91,58,27.19,27.19,0,0,1,345.82,60.89Z"/><path class="cls-1" d="M368.46,59.91a4.51,4.51,0,0,1-4.5-4.5V5.5a4.5,4.5,0,0,1,9,0V55.41A4.5,4.5,0,0,1,368.46,59.91Z"/><path class="cls-1" d="M400.91,59.91a4.5,4.5,0,0,1-4.5-4.5V34.85c0-1.54-.17-6.55-3.93-9.79a10.71,10.71,0,0,0-4.53-2.26c-4.94-.95-11.37,3.19-15.66,10a4.5,4.5,0,1,1-7.63-4.78c6.42-10.24,16.23-15.78,25-14.1a19.6,19.6,0,0,1,8.7,4.27c6.75,5.81,7.12,14.26,7.07,16.71V55.41A4.51,4.51,0,0,1,400.91,59.91Z"/><circle class="cls-1" cx="66.96" cy="54.03" r="6.26"/><path class="cls-1" d="M32,60.47a4.5,4.5,0,0,1-4.28-5.89L44.33,3.49a4.5,4.5,0,0,1,8.56,2.78L36.3,57.36A4.5,4.5,0,0,1,32,60.47Z"/><path class="cls-1" d="M4.5,60.47A4.5,4.5,0,0,1,.22,54.58L16.81,3.49a4.5,4.5,0,1,1,8.56,2.78L8.78,57.36A4.5,4.5,0,0,1,4.5,60.47Z"/></svg>